{"title":"Little Caprice xXx Wakes Up To Her Anal Debut@Mastitorrents","uid":6085964,"size":1076010693,"categoryP":"porn","categoryS":"movie_clips","magnet":"?xt=urn:btih:801e2b967c0f85bc0a3548bc21c7d9b13f9bdb64&amp;dn=Little+Caprice+xXx+Wakes+Up+To+Her+Anal+Debut%40Mastitorrents&amp;tr=udp%3A%2F%2Ftracker.openbittorrent.com%3A80&amp;tr=udp%3A%2F%2Fopen.demonii.com%3A1337&amp;tr=udp%3A%2F%2Ftracker.coppersurfer.tk%3A6969&amp;tr=udp%3A%2F%2Fexodus.desync.com%3A6969","seeders":0,"leechers":1,"uploader":"amanrulz","files":1,"time":1294328342,"description":"mastitorrents.com\n &lt;a href=&quot;\nhttp://mastitorrents.com/forums/index.php&quot; rel=&quot;nofollow&quot; target=&quot;_NEW&quot;&gt;\nhttp://mastitorrents.com/forums/index.php&lt;/a&gt;\n\nVideo\nID : 1\nFormat : WMV2\nCodec ID : WMV2\nCodec ID/Info : Windows Media Video 8\nDescription of the codec : wmv2\nDuration : 27mn 38s\nBit rate : 4 849 Kbps\nWidth : 1 280 pixels\nHeight : 720 pixels\nDisplay aspect ratio : 16:9\nFrame rate : 25.000 fps\nBit depth : 8 bits\nBits/(Pixel*Frame) : 0.210\nStream size : 958 MiB (93%)\n\nAudio\nID : 2\nFormat : WMA\nFormat version : Version 2\nCodec ID : 161\nCodec ID/Info : Windows Media Audio\nDescription of the codec : Windows Media Audio V8\nDuration : 27mn 38s\nBit rate : 128 Kbps\nChannel(s) : 2 channels\nSampling rate : 44.1 KHz\nBit depth : 16 bits\nStream size : 25.3 MiB (2%) ","torrent":{"xt":"urn:btih:801e2b967c0f85bc0a3548bc21c7d9b13f9bdb64","amp;dn":"Little+Caprice+xXx+Wakes+Up+To+Her+Anal+Debut%40Mastitorrents","amp;tr":["udp%3A%2F%2Ftracker.openbittorrent.com%3A80","udp%3A%2F%2Fopen.demonii.com%3A1337","udp%3A%2F%2Ftracker.coppersurfer.tk%3A6969","udp%3A%2F%2Fexodus.desync.com%3A6969"],"infoHash":"801e2b967c0f85bc0a3548bc21c7d9b13f9bdb64","infoHashBuffer":{"type":"Buffer","data":[128,30,43,150,124,15,133,188,10,53,72,188,33,199,217,177,63,155,219,100]},"announce":[],"urlList":[]}}